<svg width="99" height="19" viewBox="0 0 99 19" fill="none" xmlns="http://www.w3.org/2000/svg">
<path d="M90.6375 11.8407C92.9069 11.8407 94.6199 10.2224 94.6199 8.07739H92.8705C92.8705 9.24772 91.9315 10.0983 90.6386 10.0983C89.3456 10.0983 88.4066 9.24875 88.4066 8.07739H86.6572C86.6572 10.2229 88.3686 11.8407 90.6396 11.8407H90.6375Z" fill="white"/>
<path d="M84.2185 14.7229H90.6375C91.9072 14.723 93.1484 14.348 94.2042 13.6454C95.2599 12.9429 96.0828 11.9442 96.5687 10.7758C97.0547 9.60734 97.1818 8.32162 96.9341 7.08121C96.6864 5.8408 96.0749 4.70142 95.177 3.80717C94.2792 2.91292 93.1352 2.30397 91.8899 2.05732C90.6446 1.81067 89.3538 1.93742 88.1807 2.42152C87.0077 2.90562 86.0052 3.72533 85.2999 4.77699C84.5946 5.82865 84.2183 7.06502 84.2185 8.32973V14.7229ZM90.6375 16.6564H82.2778V8.32973C82.2778 3.73678 86.0294 0 90.6375 0C95.2455 0 99.0002 3.73627 99.0002 8.32973C99.0002 12.9232 95.2481 16.6564 90.6375 16.6564Z" fill="white"/>
<path d="M6.96516 8.20219C6.45565 7.92223 5.92245 7.68736 5.3717 7.5003C4.82465 7.32218 4.33777 7.15497 3.91107 6.99865C3.48437 6.84234 3.14862 6.65026 2.90382 6.42243C2.65764 6.19459 2.53473 5.88502 2.53507 5.49372C2.53507 5.03669 2.69457 4.68847 3.01357 4.44906C3.33257 4.20964 3.72713 4.09539 4.19725 4.10628C4.7443 4.10628 5.17168 4.26533 5.4794 4.58341C5.78712 4.90149 5.94662 5.2664 5.9579 5.67813H8.25859C8.23568 4.98748 8.05396 4.3915 7.71342 3.8902C7.37288 3.3889 6.90447 2.9981 6.30818 2.71782C5.70814 2.44061 5.01595 2.302 4.23161 2.302C3.44796 2.302 2.77611 2.43789 2.18376 2.71067C1.61947 2.96029 1.13455 3.35902 0.781599 3.86364C0.439692 4.36085 0.274551 4.95445 0.286176 5.64442C0.286176 6.4587 0.523801 7.11087 0.999052 7.60093C1.4743 8.091 2.16564 8.49234 3.07306 8.80498L4.65113 9.34034C5.14296 9.50789 5.53889 9.72449 5.8343 9.99268C6.12971 10.2609 6.27997 10.6333 6.27997 11.1129C6.27997 11.5926 6.11176 11.9349 5.77635 12.2082C5.44094 12.4815 4.98757 12.6169 4.41675 12.6169C3.75551 12.6169 3.23769 12.4295 2.8633 12.0549C2.49303 11.6909 2.27918 11.1978 2.26684 10.6798H0C0.0107701 11.4721 0.207708 12.1423 0.587738 12.695C0.967767 13.2477 1.4873 13.6687 2.14888 13.9644C2.81047 14.2602 3.57053 14.4089 4.43163 14.4089C5.29272 14.4089 6.08201 14.25 6.69847 13.9318C7.31493 13.6135 7.77548 13.1936 8.0914 12.6695C8.4022 12.1544 8.56472 11.5642 8.56118 10.9633C8.56118 10.2726 8.41587 9.70695 8.12525 9.26627C7.83183 8.82349 7.43384 8.45918 6.96618 8.20525L6.96516 8.20219Z" fill="white"/>
<path d="M11.6158 9.23777C11.7276 8.63668 11.9841 8.18799 12.3851 7.89171C12.7886 7.5964 13.278 7.44068 13.7786 7.4483C14.3037 7.4483 14.7858 7.60972 15.1546 7.93308C15.5233 8.25645 15.7254 8.69168 15.7582 9.23777H11.6158ZM15.95 6.24579C15.323 5.88922 14.601 5.71094 13.7842 5.71094C12.9103 5.71094 12.1519 5.89824 11.5092 6.27286C10.8693 6.64356 10.3462 7.18497 9.99879 7.83603C9.63466 8.5042 9.45293 9.26791 9.45362 10.1271C9.45362 10.9869 9.63825 11.722 10.0075 12.3672C10.3643 13.0021 10.8939 13.5238 11.5353 13.8721C12.1849 14.2293 12.9293 14.4078 13.7683 14.4075C14.4391 14.4075 15.0407 14.2849 15.5731 14.0396C16.0891 13.8052 16.547 13.4604 16.9142 13.0297C17.2707 12.6119 17.5362 12.1248 17.6937 11.5994H15.5131C15.3687 11.9103 15.1387 12.174 14.8499 12.36C14.5528 12.5552 14.1865 12.6527 13.7509 12.6527C13.1696 12.6527 12.6739 12.4688 12.2636 12.101C11.8533 11.7332 11.6271 11.2254 11.5851 10.5777H17.9132C17.924 10.4326 17.9332 10.2926 17.9379 10.1598C17.9425 10.027 17.9471 9.89879 17.9471 9.77568C17.9563 9.05292 17.7736 8.34058 17.4173 7.71087C17.0721 7.09845 16.5645 6.59233 15.95 6.24783V6.24579Z" fill="white"/>
<path d="M23.3231 9.74174C23.037 9.9752 22.6769 10.0937 22.2405 10.0937C21.7813 10.0937 21.4121 9.97639 21.1327 9.74174C20.8534 9.5071 20.7135 9.17284 20.7132 8.73897C20.7132 8.30407 20.853 7.96964 21.1327 7.73568C21.4127 7.50223 21.7815 7.38371 22.2405 7.38371C22.6995 7.38371 23.038 7.50121 23.3231 7.73568C23.6083 7.97016 23.7504 8.30424 23.7504 8.73897C23.7504 9.17369 23.6078 9.50523 23.3231 9.74174ZM21.1327 13.9883C21.5245 14.0553 21.9487 14.1053 22.4087 14.139C23.0583 14.1837 23.492 14.3061 23.7098 14.5063C23.8158 14.6008 23.8998 14.7171 23.9562 14.8471C24.0126 14.9771 24.04 15.1177 24.0365 15.2593C24.0365 15.6271 23.8687 15.9198 23.5329 16.1374C23.1975 16.3556 22.761 16.4628 22.2231 16.4628C21.6851 16.4628 21.1902 16.3607 20.804 16.1533C20.4178 15.9459 20.2255 15.6353 20.2255 15.2266C20.2284 14.9932 20.3015 14.766 20.4352 14.5743C20.5754 14.3624 20.8076 14.1673 21.1317 13.9889L21.1327 13.9883ZM33.0757 10.1918C33.0757 10.9509 32.8827 11.5416 32.4967 11.9639C32.1107 12.3862 31.621 12.5978 31.0278 12.5989C30.4004 12.5989 29.9418 12.4092 29.6518 12.0298C29.3619 11.6504 29.2164 11.1041 29.2154 10.391V5.90994C25.5269 5.90994 23.8678 5.71021 22.2405 5.71021C21.5245 5.71021 20.9144 5.84387 20.4101 6.11121C19.9293 6.35646 19.5268 6.73059 19.248 7.19144C18.9691 7.65229 18.8251 8.18154 18.832 8.71956C18.832 9.61148 19.1568 10.3418 19.8065 10.9105L18.3458 12.4487V12.8333C18.4778 12.963 18.6211 13.0806 18.7741 13.1848C18.9571 13.3081 19.1509 13.4148 19.3531 13.5036C18.6248 14.0485 18.261 14.6955 18.2617 15.4447C18.2617 16.3247 18.6255 16.9854 19.3531 17.4268C20.0807 17.8682 21.038 18.0882 22.2251 18.0868C23.0987 18.0868 23.8146 17.9506 24.373 17.6781C24.9313 17.4057 25.3452 17.0483 25.6146 16.6059C25.8768 16.1868 26.0162 15.7031 26.0172 15.2092C26.0172 14.4624 25.7652 13.877 25.2612 13.453C24.7573 13.029 23.9512 12.7673 22.8431 12.6678C22.1148 12.5997 21.5888 12.533 21.265 12.4676C20.9974 12.4196 20.7376 12.335 20.4932 12.2162L21.1148 11.5976C21.4826 11.689 21.8604 11.7339 22.2395 11.7315C22.9335 11.7315 23.5351 11.5978 24.0442 11.3305C24.5292 11.0862 24.934 10.7091 25.211 10.2434C25.463 9.79882 25.6011 9.29916 25.6128 8.78873C25.6245 8.2783 25.5096 7.77288 25.2782 7.3173L27.0829 7.24068V10.5954C27.0829 11.8438 27.3655 12.7914 27.9307 13.4382C28.4958 14.0849 29.2993 14.4084 30.3411 14.4088C30.9907 14.4088 31.5587 14.2639 32.0448 13.974C32.5202 13.6963 32.9071 13.2905 33.1608 12.8032L33.328 14.2049H35.2256V5.91301H33.0793V10.1938L33.0757 10.1918Z" fill="white"/>
<path d="M38.7439 7.46669L38.5434 5.9117H36.6299V14.2047H38.7777V10.4244C38.7777 9.7893 38.8813 9.29328 39.0885 8.93637C39.2803 8.59432 39.5854 8.32925 39.9517 8.18646C40.3536 8.0353 40.7807 7.96129 41.2102 7.96833H41.8134V5.71094C41.109 5.71094 40.4963 5.86981 39.9753 6.18755C39.4602 6.50001 39.0351 6.93998 38.7413 7.46465L38.7439 7.46669Z" fill="white"/>
<path d="M47.3966 12.1312C47.0547 12.5323 46.576 12.7328 45.9606 12.7324C45.5575 12.7324 45.2326 12.6434 44.9861 12.4652C44.7396 12.2871 44.6172 12.0361 44.6189 11.7123C44.6178 11.5658 44.6505 11.4211 44.7145 11.2892C44.7784 11.1574 44.8719 11.0419 44.9877 10.9516C45.2345 10.7449 45.6429 10.6417 46.2129 10.6421H48.0433C47.9541 11.2336 47.7386 11.7296 47.3971 12.1301L47.3966 12.1312ZM49.2188 6.59673C48.535 6.0062 47.6007 5.71094 46.416 5.71094C45.7216 5.71094 45.095 5.83013 44.5364 6.06852C44 6.2905 43.529 6.6445 43.1675 7.09735C42.8122 7.54969 42.5992 8.09657 42.5552 8.6692H44.6538C44.7324 8.26802 44.9336 7.96442 45.2574 7.75838C45.5821 7.55149 45.9621 7.44932 46.3991 7.44932C46.8801 7.44932 47.2832 7.58299 47.6084 7.85033C47.9325 8.1175 48.0951 8.53639 48.0951 9.10393V9.30367H45.9795C44.7709 9.30367 43.8648 9.54359 43.2614 10.0234C42.6579 10.5033 42.3555 11.1274 42.3541 11.8957C42.3496 12.3361 42.4656 12.7695 42.6895 13.1493C42.9131 13.5276 43.2551 13.8312 43.7153 14.0601C44.1743 14.2874 44.761 14.4029 45.478 14.4029C46.1949 14.4029 46.7396 14.2578 47.1817 13.9681C47.6124 13.691 47.9674 13.3119 48.2151 12.8647L48.4141 14.2047H50.2445V9.10393C50.2445 8.02231 49.9026 7.18624 49.2188 6.59571V6.59673Z" fill="white"/>
<path d="M53.7346 7.46669L53.5341 5.9117H51.6206V14.2047H53.7685V10.4244C53.7685 9.7893 53.8721 9.29328 54.0793 8.93637C54.2709 8.59291 54.5766 8.32666 54.9439 8.1834C55.3459 8.03224 55.7729 7.95822 56.2025 7.96527H56.8061V5.71094C56.1015 5.71094 55.4886 5.86981 54.9675 6.18755C54.4524 6.50001 54.0273 6.93998 53.7336 7.46465L53.7346 7.46669Z" fill="white"/>
<path d="M63.0947 9.61579C62.6075 9.45505 62.0731 9.30724 61.4915 9.17238C60.9544 9.05046 60.5237 8.91679 60.1996 8.77138C59.8755 8.62596 59.7132 8.43082 59.7129 8.18595C59.7129 7.94024 59.8216 7.75634 60.0391 7.60053C60.2565 7.44473 60.5684 7.36708 60.9709 7.36708C61.7768 7.36708 62.2413 7.67358 62.3644 8.28659H64.3953C64.2835 7.48457 63.9339 6.85454 63.3465 6.39649C62.7591 5.93843 61.9727 5.70992 60.9874 5.71094C59.9237 5.71094 59.0982 5.96176 58.5108 6.46341C57.9234 6.96505 57.6297 7.58402 57.6297 8.3203C57.6297 8.72131 57.7245 9.05949 57.9153 9.33125C58.1094 9.60838 58.3651 9.83706 58.6626 9.99943C58.984 10.1788 59.3244 10.322 59.6775 10.4265C60.0468 10.5379 60.4106 10.6327 60.7689 10.711C61.3279 10.8329 61.7645 10.9584 62.0787 11.0875C62.3926 11.2157 62.549 11.4594 62.549 11.815C62.549 12.0602 62.4398 12.2783 62.2223 12.4673C62.0049 12.6563 61.6582 12.7523 61.1894 12.7523C60.7207 12.7523 60.3355 12.6379 60.0396 12.4091C59.7437 12.1802 59.5606 11.9054 59.4944 11.5815H57.3286C57.3872 12.1186 57.5964 12.6285 57.9323 13.0527C58.2677 13.4767 58.7156 13.8084 59.2759 14.0478C59.8363 14.2872 60.486 14.4064 61.2248 14.4054C61.9633 14.4054 62.5618 14.2879 63.0891 14.0534C63.6163 13.819 64.0173 13.4966 64.2979 13.0829C64.5765 12.6744 64.7177 12.1884 64.701 11.6949C64.701 11.1047 64.5555 10.6504 64.2645 10.332C63.9738 10.0137 63.585 9.77517 63.0978 9.61273L63.0947 9.61579Z" fill="white"/>
<path d="M67.449 9.23821C67.5608 8.63712 67.8184 8.18844 68.2218 7.89215C68.6251 7.59685 69.1143 7.44112 69.6148 7.44874C70.1405 7.44874 70.622 7.61017 70.9913 7.93353C71.3606 8.25689 71.5621 8.69212 71.5944 9.23821H67.449ZM73.2489 7.70978C72.9029 7.09773 72.3951 6.59188 71.7806 6.24725C71.1535 5.89069 70.4316 5.7124 69.6148 5.7124C68.7422 5.7124 67.9841 5.89971 67.3402 6.27432C66.7001 6.64486 66.1768 7.1863 65.8294 7.83749C65.4652 8.50567 65.2835 9.26937 65.2842 10.1286C65.2842 10.9883 65.4693 11.7234 65.8381 12.3686C66.195 13.0035 66.7246 13.5251 67.3659 13.8736C68.0155 14.2308 68.7598 14.4093 69.5989 14.4089C70.2697 14.4089 70.8713 14.2863 71.4036 14.0411C71.9207 13.8067 72.3795 13.4615 72.7473 13.0302C73.1044 12.6126 73.3703 12.1254 73.5279 11.5998H71.3462C71.202 11.9107 70.9722 12.1744 70.6836 12.3605C70.3868 12.5556 70.0203 12.6532 69.584 12.6532C69.0028 12.6532 68.507 12.4693 68.0967 12.1015C67.6864 11.7337 67.4603 11.2259 67.4182 10.5781H73.7464C73.7577 10.4331 73.7664 10.2931 73.7715 10.1603C73.7766 10.0275 73.7802 9.89923 73.7802 9.77612C73.7897 9.0534 73.6071 8.34104 73.251 7.71131L73.2489 7.70978Z" fill="white"/>
</svg>
